<svg width="298" height="226" viewBox="0 0 298 226" fill="none" xmlns="http://www.w3.org/2000/svg">
<path d="M1.596 14V4.2H5.264C6.09467 4.2 6.80867 4.33533 7.406 4.606C8.00333 4.86733 8.46067 5.25 8.778 5.754C9.10467 6.24867 9.268 6.85067 9.268 7.56C9.268 8.25067 9.10467 8.848 8.778 9.352C8.46067 9.84667 8.00333 10.2293 7.406 10.5C6.80867 10.7613 6.09467 10.892 5.264 10.892H2.17L2.632 10.416V14H1.596ZM8.288 14L5.768 10.444H6.888L9.422 14H8.288ZM2.632 10.5L2.17 10.01H5.236C6.216 10.01 6.958 9.79533 7.462 9.366C7.97533 8.93667 8.232 8.33467 8.232 7.56C8.232 6.776 7.97533 6.16933 7.462 5.74C6.958 5.31067 6.216 5.096 5.236 5.096H2.17L2.632 4.606V10.5ZM16.0408 14V12.376L15.9988 12.11V9.394C15.9988 8.76867 15.8215 8.288 15.4668 7.952C15.1215 7.616 14.6035 7.448 13.9128 7.448C13.4368 7.448 12.9842 7.52733 12.5548 7.686C12.1255 7.84467 11.7615 8.05467 11.4628 8.316L11.0148 7.574C11.3882 7.25667 11.8362 7.014 12.3588 6.846C12.8815 6.66867 13.4322 6.58 14.0108 6.58C14.9628 6.58 15.6955 6.818 16.2088 7.294C16.7315 7.76067 16.9928 8.47467 16.9928 9.436V14H16.0408ZM13.5068 14.07C12.9562 14.07 12.4755 13.9813 12.0648 13.804C11.6635 13.6173 11.3555 13.3653 11.1408 13.048C10.9262 12.7213 10.8188 12.348 10.8188 11.928C10.8188 11.5453 10.9075 11.2 11.0848 10.892C11.2715 10.5747 11.5702 10.3227 11.9808 10.136C12.4008 9.94 12.9608 9.842 13.6608 9.842H16.1948V10.584H13.6888C12.9795 10.584 12.4848 10.71 12.2048 10.962C11.9342 11.214 11.7988 11.5267 11.7988 11.9C11.7988 12.32 11.9622 12.656 12.2888 12.908C12.6155 13.16 13.0728 13.286 13.6608 13.286C14.2208 13.286 14.7015 13.16 15.1028 12.908C15.5135 12.6467 15.8122 12.2733 15.9988 11.788L16.2228 12.474C16.0362 12.9593 15.7095 13.3467 15.2428 13.636C14.7855 13.9253 14.2068 14.07 13.5068 14.07ZM19.6926 14V6.65H20.6866V14H19.6926ZM20.1966 5.026C19.9913 5.026 19.8186 4.956 19.6786 4.816C19.5386 4.676 19.4686 4.508 19.4686 4.312C19.4686 4.116 19.5386 3.95267 19.6786 3.822C19.8186 3.682 19.9913 3.612 20.1966 3.612C20.402 3.612 20.5746 3.67733 20.7146 3.808C20.8546 3.93867 20.9246 4.102 20.9246 4.298C20.9246 4.50333 20.8546 4.676 20.7146 4.816C20.584 4.956 20.4113 5.026 20.1966 5.026ZM27.2044 6.58C27.8017 6.58 28.3244 6.69667 28.7724 6.93C29.2297 7.154 29.5844 7.49933 29.8364 7.966C30.0977 8.43267 30.2284 9.02067 30.2284 9.73V14H29.2344V9.828C29.2344 9.05333 29.0384 8.47 28.6464 8.078C28.2637 7.67667 27.7224 7.476 27.0224 7.476C26.4997 7.476 26.0424 7.58333 25.6504 7.798C25.2677 8.00333 24.9691 8.30667 24.7544 8.708C24.5491 9.1 24.4464 9.576 24.4464 10.136V14H23.4524V6.65H24.4044V8.666L24.2504 8.288C24.4837 7.756 24.8571 7.34067 25.3704 7.042C25.8837 6.734 26.4951 6.58 27.2044 6.58ZM32.8326 16.786C32.4873 16.786 32.156 16.73 31.8386 16.618C31.5306 16.506 31.2646 16.338 31.0406 16.114L31.5026 15.372C31.6893 15.5493 31.89 15.6847 32.1046 15.778C32.3286 15.8807 32.576 15.932 32.8466 15.932C33.1733 15.932 33.4533 15.8387 33.6866 15.652C33.9293 15.4747 34.158 15.1573 34.3726 14.7L34.8486 13.622L34.9606 13.468L37.9846 6.65H38.9646L35.2826 14.882C35.0773 15.358 34.8486 15.736 34.5966 16.016C34.354 16.296 34.088 16.492 33.7986 16.604C33.5093 16.7253 33.1873 16.786 32.8326 16.786ZM34.7926 14.21L31.4046 6.65H32.4406L35.4366 13.398L34.7926 14.21Z" fill="white"/>
<rect x="47.25" y="8.25" width="249.5" height="0.5" stroke="#39393A" stroke-width="0.5" stroke-dasharray="2 2"/>
<path d="M4.298 81.084C3.57 81.084 2.87 80.9673 2.198 80.734C1.53533 80.4913 1.022 80.1833 0.658 79.81L1.064 79.012C1.40933 79.348 1.87133 79.6327 2.45 79.866C3.038 80.09 3.654 80.202 4.298 80.202C4.914 80.202 5.41333 80.1273 5.796 79.978C6.188 79.8193 6.47267 79.6093 6.65 79.348C6.83667 79.0867 6.93 78.7973 6.93 78.48C6.93 78.0973 6.818 77.7893 6.594 77.556C6.37933 77.3227 6.09467 77.1407 5.74 77.01C5.38533 76.87 4.99333 76.7487 4.564 76.646C4.13467 76.5433 3.70533 76.436 3.276 76.324C2.84667 76.2027 2.45 76.044 2.086 75.848C1.73133 75.652 1.442 75.3953 1.218 75.078C1.00333 74.7513 0.896 74.3267 0.896 73.804C0.896 73.3187 1.022 72.8753 1.274 72.474C1.53533 72.0633 1.932 71.7367 2.464 71.494C2.996 71.242 3.67733 71.116 4.508 71.116C5.05867 71.116 5.60467 71.1953 6.146 71.354C6.68733 71.5033 7.154 71.7133 7.546 71.984L7.196 72.81C6.776 72.53 6.328 72.3247 5.852 72.194C5.38533 72.0633 4.93267 71.998 4.494 71.998C3.906 71.998 3.42067 72.0773 3.038 72.236C2.65533 72.3947 2.37067 72.6093 2.184 72.88C2.00667 73.1413 1.918 73.44 1.918 73.776C1.918 74.1587 2.02533 74.4667 2.24 74.7C2.464 74.9333 2.75333 75.1153 3.108 75.246C3.472 75.3767 3.86867 75.4933 4.298 75.596C4.72733 75.6987 5.152 75.8107 5.572 75.932C6.00133 76.0533 6.39333 76.212 6.748 76.408C7.112 76.5947 7.40133 76.8467 7.616 77.164C7.84 77.4813 7.952 77.8967 7.952 78.41C7.952 78.886 7.82133 79.3293 7.56 79.74C7.29867 80.1413 6.89733 80.468 6.356 80.72C5.824 80.9627 5.138 81.084 4.298 81.084ZM13.0373 81.07C12.4119 81.07 11.8659 80.9533 11.3993 80.72C10.9326 80.4867 10.5686 80.1367 10.3073 79.67C10.0553 79.2033 9.92928 78.62 9.92928 77.92V73.65H10.9233V77.808C10.9233 78.592 11.1146 79.1847 11.4973 79.586C11.8893 79.978 12.4353 80.174 13.1353 80.174C13.6486 80.174 14.0919 80.0713 14.4653 79.866C14.8479 79.6513 15.1373 79.3433 15.3333 78.942C15.5386 78.5407 15.6413 78.06 15.6413 77.5V73.65H16.6353V81H15.6833V78.984L15.8373 79.348C15.6039 79.8893 15.2399 80.314 14.7453 80.622C14.2599 80.9207 13.6906 81.07 13.0373 81.07ZM23.1575 73.58C23.7549 73.58 24.2775 73.6967 24.7255 73.93C25.1829 74.154 25.5375 74.4993 25.7895 74.966C26.0509 75.4327 26.1815 76.0207 26.1815 76.73V81H25.1875V76.828C25.1875 76.0533 24.9915 75.47 24.5995 75.078C24.2169 74.6767 23.6755 74.476 22.9755 74.476C22.4529 74.476 21.9955 74.5833 21.6035 74.798C21.2209 75.0033 20.9222 75.3067 20.7075 75.708C20.5022 76.1 20.3995 76.576 20.3995 77.136V81H19.4055V73.65H20.3575V75.666L20.2035 75.288C20.4369 74.756 20.8102 74.3407 21.3235 74.042C21.8369 73.734 22.4482 73.58 23.1575 73.58ZM32.6185 73.58C33.2158 73.58 33.7385 73.6967 34.1865 73.93C34.6438 74.154 34.9985 74.4993 35.2505 74.966C35.5118 75.4327 35.6425 76.0207 35.6425 76.73V81H34.6485V76.828C34.6485 76.0533 34.4525 75.47 34.0605 75.078C33.6778 74.6767 33.1365 74.476 32.4365 74.476C31.9138 74.476 31.4565 74.5833 31.0645 74.798C30.6818 75.0033 30.3831 75.3067 30.1685 75.708C29.9631 76.1 29.8605 76.576 29.8605 77.136V81H28.8665V73.65H29.8185V75.666L29.6645 75.288C29.8978 74.756 30.2711 74.3407 30.7845 74.042C31.2978 73.734 31.9091 73.58 32.6185 73.58ZM38.2467 83.786C37.9014 83.786 37.57 83.73 37.2527 83.618C36.9447 83.506 36.6787 83.338 36.4547 83.114L36.9167 82.372C37.1034 82.5493 37.304 82.6847 37.5187 82.778C37.7427 82.8807 37.99 82.932 38.2607 82.932C38.5874 82.932 38.8674 82.8387 39.1007 82.652C39.3434 82.4747 39.572 82.1573 39.7867 81.7L40.2627 80.622L40.3747 80.468L43.3987 73.65H44.3787L40.6967 81.882C40.4914 82.358 40.2627 82.736 40.0107 83.016C39.768 83.296 39.502 83.492 39.2127 83.604C38.9234 83.7253 38.6014 83.786 38.2467 83.786ZM40.2067 81.21L36.8187 73.65H37.8547L40.8507 80.398L40.2067 81.21Z" fill="white"/>
<rect x="47.25" y="75.25" width="249.5" height="0.5" stroke="#39393A" stroke-width="0.5" stroke-dasharray="2 2"/>
<path d="M8.764 138.2H9.786V148H8.764V138.2ZM2.632 148H1.596V138.2H2.632V148ZM8.862 143.478H2.52V142.568H8.862V143.478ZM15.8967 148.07C15.1313 148.07 14.4593 147.911 13.8807 147.594C13.302 147.267 12.8493 146.824 12.5227 146.264C12.196 145.695 12.0327 145.046 12.0327 144.318C12.0327 143.59 12.1867 142.946 12.4947 142.386C12.812 141.826 13.2413 141.387 13.7827 141.07C14.3333 140.743 14.9493 140.58 15.6307 140.58C16.3213 140.58 16.9327 140.739 17.4647 141.056C18.006 141.364 18.4307 141.803 18.7387 142.372C19.0467 142.932 19.2007 143.581 19.2007 144.318C19.2007 144.365 19.196 144.416 19.1867 144.472C19.1867 144.519 19.1867 144.57 19.1867 144.626H12.7887V143.884H18.6547L18.2627 144.178C18.2627 143.646 18.146 143.175 17.9127 142.764C17.6887 142.344 17.3807 142.017 16.9887 141.784C16.5967 141.551 16.144 141.434 15.6307 141.434C15.1267 141.434 14.674 141.551 14.2727 141.784C13.8713 142.017 13.5587 142.344 13.3347 142.764C13.1107 143.184 12.9987 143.665 12.9987 144.206V144.36C12.9987 144.92 13.12 145.415 13.3627 145.844C13.6147 146.264 13.96 146.595 14.3987 146.838C14.8467 147.071 15.3553 147.188 15.9247 147.188C16.3727 147.188 16.788 147.109 17.1707 146.95C17.5627 146.791 17.8987 146.549 18.1787 146.222L18.7387 146.866C18.412 147.258 18.0013 147.557 17.5067 147.762C17.0213 147.967 16.4847 148.07 15.8967 148.07ZM25.6248 148V146.376L25.5828 146.11V143.394C25.5828 142.769 25.4055 142.288 25.0508 141.952C24.7055 141.616 24.1875 141.448 23.4968 141.448C23.0208 141.448 22.5681 141.527 22.1388 141.686C21.7095 141.845 21.3455 142.055 21.0468 142.316L20.5988 141.574C20.9721 141.257 21.4201 141.014 21.9428 140.846C22.4655 140.669 23.0161 140.58 23.5948 140.58C24.5468 140.58 25.2795 140.818 25.7928 141.294C26.3155 141.761 26.5768 142.475 26.5768 143.436V148H25.6248ZM23.0908 148.07C22.5401 148.07 22.0595 147.981 21.6488 147.804C21.2475 147.617 20.9395 147.365 20.7248 147.048C20.5101 146.721 20.4028 146.348 20.4028 145.928C20.4028 145.545 20.4915 145.2 20.6688 144.892C20.8555 144.575 21.1541 144.323 21.5648 144.136C21.9848 143.94 22.5448 143.842 23.2448 143.842H25.7788V144.584H23.2728C22.5635 144.584 22.0688 144.71 21.7888 144.962C21.5181 145.214 21.3828 145.527 21.3828 145.9C21.3828 146.32 21.5461 146.656 21.8728 146.908C22.1995 147.16 22.6568 147.286 23.2448 147.286C23.8048 147.286 24.2855 147.16 24.6868 146.908C25.0975 146.647 25.3961 146.273 25.5828 145.788L25.8068 146.474C25.6201 146.959 25.2935 147.347 24.8268 147.636C24.3695 147.925 23.7908 148.07 23.0908 148.07ZM31.0299 148L27.7679 140.65H28.8039L31.7999 147.468H31.3099L34.3479 140.65H35.3279L32.0519 148H31.0299ZM36.7154 150.786C36.3701 150.786 36.0388 150.73 35.7214 150.618C35.4134 150.506 35.1474 150.338 34.9234 150.114L35.3854 149.372C35.5721 149.549 35.7728 149.685 35.9874 149.778C36.2114 149.881 36.4588 149.932 36.7294 149.932C37.0561 149.932 37.3361 149.839 37.5694 149.652C37.8121 149.475 38.0408 149.157 38.2554 148.7L38.7314 147.622L38.8434 147.468L41.8674 140.65H42.8474L39.1654 148.882C38.9601 149.358 38.7314 149.736 38.4794 150.016C38.2368 150.296 37.9708 150.492 37.6814 150.604C37.3921 150.725 37.0701 150.786 36.7154 150.786ZM38.6754 148.21L35.2874 140.65H36.3234L39.3194 147.398L38.6754 148.21Z" fill="white"/>
<rect x="47.25" y="142.25" width="249.5" height="0.5" stroke="#39393A" stroke-width="0.5" stroke-dasharray="2 2"/>
<path d="M47.088 222V213.96L47.472 214.368H45.108V213.6H47.952V222H47.088ZM53.3079 222.072C52.6599 222.072 52.0839 221.904 51.5799 221.568C51.0759 221.224 50.6799 220.736 50.3919 220.104C50.1039 219.464 49.9599 218.696 49.9599 217.8C49.9599 216.904 50.1039 216.14 50.3919 215.508C50.6799 214.868 51.0759 214.38 51.5799 214.044C52.0839 213.7 52.6599 213.528 53.3079 213.528C53.9559 213.528 54.5319 213.7 55.0359 214.044C55.5399 214.38 55.9359 214.868 56.2239 215.508C56.5199 216.14 56.6679 216.904 56.6679 217.8C56.6679 218.696 56.5199 219.464 56.2239 220.104C55.9359 220.736 55.5399 221.224 55.0359 221.568C54.5319 221.904 53.9559 222.072 53.3079 222.072ZM53.3079 221.28C53.8039 221.28 54.2359 221.148 54.6039 220.884C54.9719 220.612 55.2599 220.22 55.4679 219.708C55.6759 219.188 55.7799 218.552 55.7799 217.8C55.7799 217.048 55.6759 216.416 55.4679 215.904C55.2599 215.384 54.9719 214.992 54.6039 214.728C54.2359 214.456 53.8039 214.32 53.3079 214.32C52.8279 214.32 52.3999 214.456 52.0239 214.728C51.6479 214.992 51.3559 215.384 51.1479 215.904C50.9399 216.416 50.8359 217.048 50.8359 217.8C50.8359 218.552 50.9399 219.188 51.1479 219.708C51.3559 220.22 51.6479 220.612 52.0239 220.884C52.3999 221.148 52.8279 221.28 53.3079 221.28ZM57.2232 222L61.0632 213.6H61.9392L65.7792 222H64.8432L61.3152 214.116H61.6752L58.1472 222H57.2232ZM58.7352 219.756L58.9992 219.036H63.8832L64.1472 219.756H58.7352ZM67.1688 222V213.6H67.9008L71.7408 220.152H71.3568L75.1608 213.6H75.8928V222H75.0408V214.932H75.2448L71.7408 220.932H71.3208L67.7928 214.932H68.0208V222H67.1688Z" fill="white"/>
<rect x="59" y="59" width="5" height="150" rx="2.5" fill="#232325"/>
<rect x="59" y="84" width="5" height="125" rx="2.5" fill="#BAD4EB"/>
<path d="M91.088 223V214.96L91.472 215.368H89.108V214.6H91.952V223H91.088ZM95.4239 223V214.96L95.8079 215.368H93.4439V214.6H96.2879V223H95.4239ZM97.6959 223L101.536 214.6H102.412L106.252 223H105.316L101.788 215.116H102.148L98.6199 223H97.6959ZM99.2079 220.756L99.4719 220.036H104.356L104.62 220.756H99.2079ZM107.641 223V214.6H108.373L112.213 221.152H111.829L115.633 214.6H116.365V223H115.513V215.932H115.717L112.213 221.932H111.793L108.265 215.932H108.493V223H107.641Z" fill="white"/>
<rect x="101" y="77" width="5" height="132" rx="2.5" fill="#232325"/>
<rect x="101" y="96" width="5" height="113" rx="2.5" fill="#BAD4EB"/>
<path d="M131.088 223V214.96L131.472 215.368H129.108V214.6H131.952V223H131.088ZM133.804 223V222.388L137.296 218.968C137.616 218.656 137.856 218.384 138.016 218.152C138.176 217.912 138.284 217.688 138.34 217.48C138.396 217.272 138.424 217.076 138.424 216.892C138.424 216.404 138.256 216.02 137.92 215.74C137.592 215.46 137.104 215.32 136.456 215.32C135.96 215.32 135.52 215.396 135.136 215.548C134.76 215.7 134.436 215.936 134.164 216.256L133.552 215.728C133.88 215.344 134.3 215.048 134.812 214.84C135.324 214.632 135.896 214.528 136.528 214.528C137.096 214.528 137.588 214.62 138.004 214.804C138.42 214.98 138.74 215.24 138.964 215.584C139.196 215.928 139.312 216.332 139.312 216.796C139.312 217.068 139.272 217.336 139.192 217.6C139.12 217.864 138.984 218.144 138.784 218.44C138.592 218.728 138.308 219.056 137.932 219.424L134.728 222.568L134.488 222.232H139.696V223H133.804ZM140.18 223L144.02 214.6H144.896L148.736 223H147.8L144.272 215.116H144.632L141.104 223H140.18ZM141.692 220.756L141.956 220.036H146.84L147.104 220.756H141.692ZM150.126 223V214.6H150.858L154.698 221.152H154.314L158.118 214.6H158.85V223H157.998V215.932H158.202L154.698 221.932H154.278L150.75 215.932H150.978V223H150.126Z" fill="white"/>
<rect x="143" y="13" width="5" height="196" rx="2.5" fill="#232325"/>
<rect x="143" y="36" width="5" height="173" rx="2.5" fill="#BAD4EB"/>
<path d="M175.972 223.072C175.324 223.072 174.748 222.904 174.244 222.568C173.74 222.224 173.344 221.736 173.056 221.104C172.768 220.464 172.624 219.696 172.624 218.8C172.624 217.904 172.768 217.14 173.056 216.508C173.344 215.868 173.74 215.38 174.244 215.044C174.748 214.7 175.324 214.528 175.972 214.528C176.62 214.528 177.196 214.7 177.7 215.044C178.204 215.38 178.6 215.868 178.888 216.508C179.184 217.14 179.332 217.904 179.332 218.8C179.332 219.696 179.184 220.464 178.888 221.104C178.6 221.736 178.204 222.224 177.7 222.568C177.196 222.904 176.62 223.072 175.972 223.072ZM175.972 222.28C176.468 222.28 176.9 222.148 177.268 221.884C177.636 221.612 177.924 221.22 178.132 220.708C178.34 220.188 178.444 219.552 178.444 218.8C178.444 218.048 178.34 217.416 178.132 216.904C177.924 216.384 177.636 215.992 177.268 215.728C176.9 215.456 176.468 215.32 175.972 215.32C175.492 215.32 175.064 215.456 174.688 215.728C174.312 215.992 174.02 216.384 173.812 216.904C173.604 217.416 173.5 218.048 173.5 218.8C173.5 219.552 173.604 220.188 173.812 220.708C174.02 221.22 174.312 221.612 174.688 221.884C175.064 222.148 175.492 222.28 175.972 222.28ZM182.033 223V214.96L182.417 215.368H180.053V214.6H182.897V223H182.033ZM185.649 223V214.6H188.793C189.505 214.6 190.117 214.716 190.629 214.948C191.141 215.172 191.533 215.5 191.805 215.932C192.085 216.356 192.225 216.872 192.225 217.48C192.225 218.072 192.085 218.584 191.805 219.016C191.533 219.44 191.141 219.768 190.629 220C190.117 220.232 189.505 220.348 188.793 220.348H186.141L186.537 219.928V223H185.649ZM186.537 220L186.141 219.568H188.769C189.609 219.568 190.245 219.388 190.677 219.028C191.117 218.66 191.337 218.144 191.337 217.48C191.337 216.808 191.117 216.288 190.677 215.92C190.245 215.552 189.609 215.368 188.769 215.368H186.141L186.537 214.948V220ZM194.145 223V214.6H194.877L198.717 221.152H198.333L202.137 214.6H202.869V223H202.017V215.932H202.221L198.717 221.932H198.297L194.769 215.932H194.997V223H194.145Z" fill="white"/>
<rect x="186" y="119" width="5" height="90" rx="2.5" fill="#232325"/>
<rect x="186" y="137" width="5" height="72" rx="2.5" fill="#BAD4EB"/>
<path d="M219.972 223.072C219.324 223.072 218.748 222.904 218.244 222.568C217.74 222.224 217.344 221.736 217.056 221.104C216.768 220.464 216.624 219.696 216.624 218.8C216.624 217.904 216.768 217.14 217.056 216.508C217.344 215.868 217.74 215.38 218.244 215.044C218.748 214.7 219.324 214.528 219.972 214.528C220.62 214.528 221.196 214.7 221.7 215.044C222.204 215.38 222.6 215.868 222.888 216.508C223.184 217.14 223.332 217.904 223.332 218.8C223.332 219.696 223.184 220.464 222.888 221.104C222.6 221.736 222.204 222.224 221.7 222.568C221.196 222.904 220.62 223.072 219.972 223.072ZM219.972 222.28C220.468 222.28 220.9 222.148 221.268 221.884C221.636 221.612 221.924 221.22 222.132 220.708C222.34 220.188 222.444 219.552 222.444 218.8C222.444 218.048 222.34 217.416 222.132 216.904C221.924 216.384 221.636 215.992 221.268 215.728C220.9 215.456 220.468 215.32 219.972 215.32C219.492 215.32 219.064 215.456 218.688 215.728C218.312 215.992 218.02 216.384 217.812 216.904C217.604 217.416 217.5 218.048 217.5 218.8C217.5 219.552 217.604 220.188 217.812 220.708C218.02 221.22 218.312 221.612 218.688 221.884C219.064 222.148 219.492 222.28 219.972 222.28ZM224.413 223V222.388L227.905 218.968C228.225 218.656 228.465 218.384 228.625 218.152C228.785 217.912 228.893 217.688 228.949 217.48C229.005 217.272 229.033 217.076 229.033 216.892C229.033 216.404 228.865 216.02 228.529 215.74C228.201 215.46 227.713 215.32 227.065 215.32C226.569 215.32 226.129 215.396 225.745 215.548C225.369 215.7 225.045 215.936 224.773 216.256L224.161 215.728C224.489 215.344 224.909 215.048 225.421 214.84C225.933 214.632 226.505 214.528 227.137 214.528C227.705 214.528 228.197 214.62 228.613 214.804C229.029 214.98 229.349 215.24 229.573 215.584C229.805 215.928 229.921 216.332 229.921 216.796C229.921 217.068 229.881 217.336 229.801 217.6C229.729 217.864 229.593 218.144 229.393 218.44C229.201 218.728 228.917 219.056 228.541 219.424L225.337 222.568L225.097 222.232H230.305V223H224.413ZM232.134 223V214.6H235.278C235.99 214.6 236.602 214.716 237.114 214.948C237.626 215.172 238.018 215.5 238.29 215.932C238.57 216.356 238.71 216.872 238.71 217.48C238.71 218.072 238.57 218.584 238.29 219.016C238.018 219.44 237.626 219.768 237.114 220C236.602 220.232 235.99 220.348 235.278 220.348H232.626L233.022 219.928V223H232.134ZM233.022 220L232.626 219.568H235.254C236.094 219.568 236.73 219.388 237.162 219.028C237.602 218.66 237.822 218.144 237.822 217.48C237.822 216.808 237.602 216.288 237.162 215.92C236.73 215.552 236.094 215.368 235.254 215.368H232.626L233.022 214.948V220ZM240.63 223V214.6H241.362L245.202 221.152H244.818L248.622 214.6H249.354V223H248.502V215.932H248.706L245.202 221.932H244.782L241.254 215.932H241.482V223H240.63Z" fill="white"/>
<rect x="231" y="39" width="5" height="170" rx="2.5" fill="#232325"/>
<rect x="231" y="62" width="5" height="147" rx="2.5" fill="#BAD4EB"/>
<path d="M265.972 223.072C265.324 223.072 264.748 222.904 264.244 222.568C263.74 222.224 263.344 221.736 263.056 221.104C262.768 220.464 262.624 219.696 262.624 218.8C262.624 217.904 262.768 217.14 263.056 216.508C263.344 215.868 263.74 215.38 264.244 215.044C264.748 214.7 265.324 214.528 265.972 214.528C266.62 214.528 267.196 214.7 267.7 215.044C268.204 215.38 268.6 215.868 268.888 216.508C269.184 217.14 269.332 217.904 269.332 218.8C269.332 219.696 269.184 220.464 268.888 221.104C268.6 221.736 268.204 222.224 267.7 222.568C267.196 222.904 266.62 223.072 265.972 223.072ZM265.972 222.28C266.468 222.28 266.9 222.148 267.268 221.884C267.636 221.612 267.924 221.22 268.132 220.708C268.34 220.188 268.444 219.552 268.444 218.8C268.444 218.048 268.34 217.416 268.132 216.904C267.924 216.384 267.636 215.992 267.268 215.728C266.9 215.456 266.468 215.32 265.972 215.32C265.492 215.32 265.064 215.456 264.688 215.728C264.312 215.992 264.02 216.384 263.812 216.904C263.604 217.416 263.5 218.048 263.5 218.8C263.5 219.552 263.604 220.188 263.812 220.708C264.02 221.22 264.312 221.612 264.688 221.884C265.064 222.148 265.492 222.28 265.972 222.28ZM272.96 223.072C272.352 223.072 271.776 222.976 271.232 222.784C270.696 222.584 270.264 222.32 269.936 221.992L270.356 221.308C270.628 221.588 270.992 221.82 271.448 222.004C271.912 222.188 272.416 222.28 272.96 222.28C273.656 222.28 274.188 222.128 274.556 221.824C274.932 221.52 275.12 221.112 275.12 220.6C275.12 220.088 274.936 219.68 274.568 219.376C274.208 219.072 273.636 218.92 272.852 218.92H272.252V218.284L274.844 215.032L274.964 215.368H270.284V214.6H275.684V215.212L273.092 218.464L272.672 218.188H272.996C274.004 218.188 274.756 218.412 275.252 218.86C275.756 219.308 276.008 219.884 276.008 220.588C276.008 221.06 275.896 221.484 275.672 221.86C275.448 222.236 275.108 222.532 274.652 222.748C274.204 222.964 273.64 223.072 272.96 223.072ZM277.97 223V214.6H281.114C281.826 214.6 282.438 214.716 282.95 214.948C283.462 215.172 283.854 215.5 284.126 215.932C284.406 216.356 284.546 216.872 284.546 217.48C284.546 218.072 284.406 218.584 284.126 219.016C283.854 219.44 283.462 219.768 282.95 220C282.438 220.232 281.826 220.348 281.114 220.348H278.462L278.858 219.928V223H277.97ZM278.858 220L278.462 219.568H281.09C281.93 219.568 282.566 219.388 282.998 219.028C283.438 218.66 283.658 218.144 283.658 217.48C283.658 216.808 283.438 216.288 282.998 215.92C282.566 215.552 281.93 215.368 281.09 215.368H278.462L278.858 214.948V220ZM286.466 223V214.6H287.198L291.038 221.152H290.654L294.458 214.6H295.19V223H294.338V215.932H294.542L291.038 221.932H290.618L287.09 215.932H287.318V223H286.466Z" fill="white"/>
<rect x="277" y="129" width="5" height="80" rx="2.5" fill="#232325"/>
<rect x="277" y="149" width="5" height="60" rx="2.5" fill="#BAD4EB"/>
<path d="M297.5 142C297.5 142 287.4 147.946 279.5 149.5C242.297 156.817 271.916 62.5 234 62.5C201 62.5 222 141.5 188.5 139C145.181 135.767 188.637 41.6179 145.5 36.5C116 33 132.245 92.4006 103 96C86.024 98.0893 62 85 62 85L46.5 75" stroke="url(#paint0_linear_24_68)"/>
<circle cx="61.5" cy="84.5" r="3" fill="#BAD4EB" stroke="#2AA1FA"/>
<circle cx="103.5" cy="95.5" r="3" fill="#BAD4EB" stroke="#2AA1FA"/>
<circle cx="145.5" cy="36.5" r="3" fill="#BAD4EB" stroke="#2AA1FA"/>
<circle cx="188.5" cy="138.5" r="3" fill="#BAD4EB" stroke="#2AA1FA"/>
<circle cx="233.5" cy="63.5" r="3" fill="#BAD4EB" stroke="#2AA1FA"/>
<circle cx="279.5" cy="149.5" r="3" fill="#BAD4EB" stroke="#2AA1FA"/>
<defs>
<linearGradient id="paint0_linear_24_68" x1="38" y1="70.5" x2="379" y2="136" gradientUnits="userSpaceOnUse">
<stop stop-color="#2AA1FA"/>
<stop offset="1" stop-color="#2AA1FA" stop-opacity="0"/>
</linearGradient>
</defs>
</svg>
