<svg width="128" height="128" viewBox="0 0 128 128" fill="none" xmlns="http://www.w3.org/2000/svg">
<path d="M69.276 32.072C68.676 32.072 68.104 31.976 67.56 31.784C67.016 31.584 66.584 31.32 66.264 30.992L66.684 30.308C66.948 30.588 67.308 30.82 67.764 31.004C68.228 31.188 68.728 31.28 69.264 31.28C69.976 31.28 70.516 31.124 70.884 30.812C71.26 30.492 71.448 30.076 71.448 29.564C71.448 29.204 71.36 28.896 71.184 28.64C71.016 28.376 70.728 28.172 70.32 28.028C69.912 27.884 69.352 27.812 68.64 27.812H66.852L67.284 23.6H71.88V24.368H67.632L68.076 23.948L67.704 27.476L67.26 27.044H68.832C69.68 27.044 70.36 27.148 70.872 27.356C71.384 27.564 71.752 27.856 71.976 28.232C72.208 28.6 72.324 29.032 72.324 29.528C72.324 30 72.212 30.432 71.988 30.824C71.764 31.208 71.428 31.512 70.98 31.736C70.532 31.96 69.964 32.072 69.276 32.072Z" fill="#818085"/>
<path d="M93.088 47V38.96L93.472 39.368H91.108V38.6H93.952V47H93.088ZM99.3079 47.072C98.6599 47.072 98.0839 46.904 97.5799 46.568C97.0759 46.224 96.6799 45.736 96.3919 45.104C96.1039 44.464 95.9599 43.696 95.9599 42.8C95.9599 41.904 96.1039 41.14 96.3919 40.508C96.6799 39.868 97.0759 39.38 97.5799 39.044C98.0839 38.7 98.6599 38.528 99.3079 38.528C99.9559 38.528 100.532 38.7 101.036 39.044C101.54 39.38 101.936 39.868 102.224 40.508C102.52 41.14 102.668 41.904 102.668 42.8C102.668 43.696 102.52 44.464 102.224 45.104C101.936 45.736 101.54 46.224 101.036 46.568C100.532 46.904 99.9559 47.072 99.3079 47.072ZM99.3079 46.28C99.8039 46.28 100.236 46.148 100.604 45.884C100.972 45.612 101.26 45.22 101.468 44.708C101.676 44.188 101.78 43.552 101.78 42.8C101.78 42.048 101.676 41.416 101.468 40.904C101.26 40.384 100.972 39.992 100.604 39.728C100.236 39.456 99.8039 39.32 99.3079 39.32C98.8279 39.32 98.3999 39.456 98.0239 39.728C97.6479 39.992 97.3559 40.384 97.1479 40.904C96.9399 41.416 96.8359 42.048 96.8359 42.8C96.8359 43.552 96.9399 44.188 97.1479 44.708C97.3559 45.22 97.6479 45.612 98.0239 45.884C98.3999 46.148 98.8279 46.28 99.3079 46.28Z" fill="#818085"/>
<path d="M104.088 67V58.96L104.472 59.368H102.108V58.6H104.952V67H104.088ZM106.804 67V66.388L110.296 62.968C110.616 62.656 110.856 62.384 111.016 62.152C111.176 61.912 111.284 61.688 111.34 61.48C111.396 61.272 111.424 61.076 111.424 60.892C111.424 60.404 111.256 60.02 110.92 59.74C110.592 59.46 110.104 59.32 109.456 59.32C108.96 59.32 108.52 59.396 108.136 59.548C107.76 59.7 107.436 59.936 107.164 60.256L106.552 59.728C106.88 59.344 107.3 59.048 107.812 58.84C108.324 58.632 108.896 58.528 109.528 58.528C110.096 58.528 110.588 58.62 111.004 58.804C111.42 58.98 111.74 59.24 111.964 59.584C112.196 59.928 112.312 60.332 112.312 60.796C112.312 61.068 112.272 61.336 112.192 61.6C112.12 61.864 111.984 62.144 111.784 62.44C111.592 62.728 111.308 63.056 110.932 63.424L107.728 66.568L107.488 66.232H112.696V67H106.804Z" fill="#818085"/>
<path d="M80.1 36L83.724 27.984L83.988 28.368H78.792L79.236 27.948V29.94H78.384V27.6H84.552V28.212L81.036 36H80.1Z" fill="#818085"/>
<path d="M126 68.5C126 53.2501 119.942 38.6247 109.159 27.8414C98.3753 17.058 83.75 11 68.5 11C53.2501 11 38.6247 17.058 27.8414 27.8414C17.058 38.6247 11 53.25 11 68.5H19.4206C19.4206 55.4833 24.5914 42.9998 33.7956 33.7956C42.9998 24.5914 55.4833 19.4206 68.5 19.4206C81.5167 19.4206 94.0002 24.5914 103.204 33.7956C112.409 42.9998 117.579 55.4833 117.579 68.5H126Z" fill="#BAD4EB"/>
<path d="M6.58361 70.2892C5.65731 62.2523 6.43738 54.1104 8.87284 46.3956C11.3083 38.6808 15.3443 31.5668 20.7171 25.5184C26.09 19.4701 32.6786 14.6236 40.0525 11.2957C47.4265 7.96778 55.4196 6.23339 63.5097 6.20584L63.5607 21.1787C57.5773 21.199 51.6655 22.4818 46.2117 24.9431C40.758 27.4044 35.885 30.9889 31.9112 35.4623C27.9375 39.9356 24.9524 45.1972 23.1512 50.9031C21.3499 56.6089 20.773 62.6307 21.4581 68.5748L6.58361 70.2892Z" fill="#2AA1FA"/>
</svg>
